ISO-10303-21;
HEADER;
/* Generated by software containing ST-Developer
 * from STEP Tools, Inc. (www.steptools.com) 
 */

FILE_DESCRIPTION(
/* description */ (''),
/* implementation_level */ '2;1');

FILE_NAME(
/* name */ 'hex shaft mod.step',
/* time_stamp */ '2024-03-16T21:46:50-04:00',
/* author */ (''),
/* organization */ (''),
/* preprocessor_version */ 'ST-DEVELOPER v20',
/* originating_system */ 'Autodesk Translation Framework v12.20.1.177',

/* authorisation */ '');

FILE_SCHEMA (('AUTOMOTIVE_DESIGN { 1 0 10303 214 3 1 1 }'));
ENDSEC;

DATA;
#10=MECHANICAL_DESIGN_GEOMETRIC_PRESENTATION_REPRESENTATION('',(#21),#674);
#11=ITEM_DEFINED_TRANSFORMATION($,$,#419,#445);
#12=ITEM_DEFINED_TRANSFORMATION($,$,#418,#446);
#13=(
REPRESENTATION_RELATIONSHIP($,$,#692,#691)
REPRESENTATION_RELATIONSHIP_WITH_TRANSFORMATION(#11)
SHAPE_REPRESENTATION_RELATIONSHIP()
);
#14=(
REPRESENTATION_RELATIONSHIP($,$,#691,#690)
REPRESENTATION_RELATIONSHIP_WITH_TRANSFORMATION(#12)
SHAPE_REPRESENTATION_RELATIONSHIP()
);
#15=CONTEXT_DEPENDENT_SHAPE_REPRESENTATION(#13,#688);
#16=CONTEXT_DEPENDENT_SHAPE_REPRESENTATION(#14,#689);
#17=NEXT_ASSEMBLY_USAGE_OCCURRENCE('1/2 hex shaft w/ holder:1',
'1/2 hex shaft w/ holder:1','1/2 hex shaft w/ holder:1',#695,#696,
'1/2 hex shaft w/ holder:1');
#18=NEXT_ASSEMBLY_USAGE_OCCURRENCE('9384 odom v28:1','9384 odom v28:1',
'9384 odom v28:1',#694,#695,'9384 odom v28:1');
#19=SHAPE_REPRESENTATION_RELATIONSHIP('SRR','None',#692,#20);
#20=ADVANCED_BREP_SHAPE_REPRESENTATION('',(#22),#673);
#21=STYLED_ITEM('',(#710),#22);
#22=MANIFOLD_SOLID_BREP('Body1',#404);
#23=FACE_BOUND('',#76,.T.);
#24=FACE_BOUND('',#78,.T.);
#25=PLANE('',#423);
#26=PLANE('',#424);
#27=PLANE('',#425);
#28=PLANE('',#426);
#29=PLANE('',#427);
#30=PLANE('',#428);
#31=PLANE('',#429);
#32=PLANE('',#430);
#33=PLANE('',#431);
#34=PLANE('',#432);
#35=PLANE('',#433);
#36=PLANE('',#434);
#37=PLANE('',#435);
#38=PLANE('',#436);
#39=PLANE('',#437);
#40=PLANE('',#438);
#41=PLANE('',#439);
#42=PLANE('',#440);
#43=PLANE('',#441);
#44=PLANE('',#442);
#45=PLANE('',#443);
#46=PLANE('',#444);
#47=FACE_OUTER_BOUND('',#70,.T.);
#48=FACE_OUTER_BOUND('',#71,.T.);
#49=FACE_OUTER_BOUND('',#72,.T.);
#50=FACE_OUTER_BOUND('',#73,.T.);
#51=FACE_OUTER_BOUND('',#74,.T.);
#52=FACE_OUTER_BOUND('',#75,.T.);
#53=FACE_OUTER_BOUND('',#77,.T.);
#54=FACE_OUTER_BOUND('',#79,.T.);
#55=FACE_OUTER_BOUND('',#80,.T.);
#56=FACE_OUTER_BOUND('',#81,.T.);
#57=FACE_OUTER_BOUND('',#82,.T.);
#58=FACE_OUTER_BOUND('',#83,.T.);
#59=FACE_OUTER_BOUND('',#84,.T.);
#60=FACE_OUTER_BOUND('',#85,.T.);
#61=FACE_OUTER_BOUND('',#86,.T.);
#62=FACE_OUTER_BOUND('',#87,.T.);
#63=FACE_OUTER_BOUND('',#88,.T.);
#64=FACE_OUTER_BOUND('',#89,.T.);
#65=FACE_OUTER_BOUND('',#90,.T.);
#66=FACE_OUTER_BOUND('',#91,.T.);
#67=FACE_OUTER_BOUND('',#92,.T.);
#68=FACE_OUTER_BOUND('',#93,.T.);
#69=FACE_OUTER_BOUND('',#94,.T.);
#70=EDGE_LOOP('',(#278,#279,#280,#281));
#71=EDGE_LOOP('',(#282,#283,#284,#285,#286,#287));
#72=EDGE_LOOP('',(#288,#289,#290,#291));
#73=EDGE_LOOP('',(#292,#293,#294,#295));
#74=EDGE_LOOP('',(#296,#297,#298,#299));
#75=EDGE_LOOP('',(#300));
#76=EDGE_LOOP('',(#301,#302,#303,#304,#305,#306));
#77=EDGE_LOOP('',(#307));
#78=EDGE_LOOP('',(#308,#309,#310,#311,#312,#313));
#79=EDGE_LOOP('',(#314,#315,#316,#317));
#80=EDGE_LOOP('',(#318,#319,#320,#321));
#81=EDGE_LOOP('',(#322,#323,#324,#325));
#82=EDGE_LOOP('',(#326,#327,#328,#329));
#83=EDGE_LOOP('',(#330,#331,#332,#333));
#84=EDGE_LOOP('',(#334,#335,#336,#337));
#85=EDGE_LOOP('',(#338,#339,#340,#341));
#86=EDGE_LOOP('',(#342,#343,#344,#345));
#87=EDGE_LOOP('',(#346,#347,#348,#349));
#88=EDGE_LOOP('',(#350,#351,#352,#353,#354,#355));
#89=EDGE_LOOP('',(#356,#357,#358,#359));
#90=EDGE_LOOP('',(#360,#361,#362,#363));
#91=EDGE_LOOP('',(#364,#365,#366,#367));
#92=EDGE_LOOP('',(#368,#369,#370,#371));
#93=EDGE_LOOP('',(#372,#373,#374,#375));
#94=EDGE_LOOP('',(#376,#377,#378,#379));
#95=LINE('',#563,#144);
#96=LINE('',#568,#145);
#97=LINE('',#570,#146);
#98=LINE('',#572,#147);
#99=LINE('',#574,#148);
#100=LINE('',#576,#149);
#101=LINE('',#577,#150);
#102=LINE('',#580,#151);
#103=LINE('',#582,#152);
#104=LINE('',#583,#153);
#105=LINE('',#586,#154);
#106=LINE('',#587,#155);
#107=LINE('',#590,#156);
#108=LINE('',#591,#157);
#109=LINE('',#594,#158);
#110=LINE('',#596,#159);
#111=LINE('',#597,#160);
#112=LINE('',#601,#161);
#113=LINE('',#603,#162);
#114=LINE('',#605,#163);
#115=LINE('',#607,#164);
#116=LINE('',#609,#165);
#117=LINE('',#610,#166);
#118=LINE('',#613,#167);
#119=LINE('',#615,#168);
#120=LINE('',#616,#169);
#121=LINE('',#618,#170);
#122=LINE('',#619,#171);
#123=LINE('',#622,#172);
#124=LINE('',#623,#173);
#125=LINE('',#627,#174);
#126=LINE('',#628,#175);
#127=LINE('',#631,#176);
#128=LINE('',#632,#177);
#129=LINE('',#635,#178);
#130=LINE('',#636,#179);
#131=LINE('',#638,#180);
#132=LINE('',#643,#181);
#133=LINE('',#645,#182);
#134=LINE('',#647,#183);
#135=LINE('',#649,#184);
#136=LINE('',#651,#185);
#137=LINE('',#652,#186);
#138=LINE('',#654,#187);
#139=LINE('',#655,#188);
#140=LINE('',#657,#189);
#141=LINE('',#659,#190);
#142=LINE('',#661,#191);
#143=LINE('',#663,#192);
#144=VECTOR('',#457,0.375);
#145=VECTOR('',#462,0.393700787401575);
#146=VECTOR('',#463,0.393700787401575);
#147=VECTOR('',#464,0.393700787401575);
#148=VECTOR('',#465,0.393700787401575);
#149=VECTOR('',#466,0.393700787401575);
#150=VECTOR('',#467,0.393700787401575);
#151=VECTOR('',#470,39.3700787401575);
#152=VECTOR('',#471,0.393700787401575);
#153=VECTOR('',#472,39.3700787401575);
#154=VECTOR('',#475,39.3700787401575);
#155=VECTOR('',#476,0.393700787401575);
#156=VECTOR('',#479,39.3700787401575);
#157=VECTOR('',#480,0.393700787401575);
#158=VECTOR('',#483,0.393700787401575);
#159=VECTOR('',#484,0.393700787401575);
#160=VECTOR('',#485,0.393700787401575);
#161=VECTOR('',#488,0.393700787401575);
#162=VECTOR('',#489,0.393700787401575);
#163=VECTOR('',#490,0.393700787401575);
#164=VECTOR('',#491,0.393700787401575);
#165=VECTOR('',#492,0.393700787401575);
#166=VECTOR('',#493,0.393700787401575);
#167=VECTOR('',#496,39.3700787401575);
#168=VECTOR('',#497,39.3700787401575);
#169=VECTOR('',#498,39.3700787401575);
#170=VECTOR('',#501,39.3700787401575);
#171=VECTOR('',#502,39.3700787401575);
#172=VECTOR('',#505,39.3700787401575);
#173=VECTOR('',#506,39.3700787401575);
#174=VECTOR('',#511,39.3700787401575);
#175=VECTOR('',#512,39.3700787401575);
#176=VECTOR('',#515,39.3700787401575);
#177=VECTOR('',#516,39.3700787401575);
#178=VECTOR('',#519,39.3700787401575);
#179=VECTOR('',#520,39.3700787401575);
#180=VECTOR('',#523,39.3700787401575);
#181=VECTOR('',#528,39.3700787401575);
#182=VECTOR('',#529,39.3700787401575);
#183=VECTOR('',#530,39.3700787401575);
#184=VECTOR('',#531,39.3700787401575);
#185=VECTOR('',#532,39.3700787401575);
#186=VECTOR('',#533,39.3700787401575);
#187=VECTOR('',#536,39.3700787401575);
#188=VECTOR('',#537,39.3700787401575);
#189=VECTOR('',#540,39.3700787401575);
#190=VECTOR('',#543,39.3700787401575);
#191=VECTOR('',#546,39.3700787401575);
#192=VECTOR('',#549,39.3700787401575);
#193=CIRCLE('',#421,0.375);
#194=CIRCLE('',#422,0.375);
#195=VERTEX_POINT('',#560);
#196=VERTEX_POINT('',#562);
#197=VERTEX_POINT('',#566);
#198=VERTEX_POINT('',#567);
#199=VERTEX_POINT('',#569);
#200=VERTEX_POINT('',#571);
#201=VERTEX_POINT('',#573);
#202=VERTEX_POINT('',#575);
#203=VERTEX_POINT('',#579);
#204=VERTEX_POINT('',#581);
#205=VERTEX_POINT('',#585);
#206=VERTEX_POINT('',#589);
#207=VERTEX_POINT('',#593);
#208=VERTEX_POINT('',#595);
#209=VERTEX_POINT('',#599);
#210=VERTEX_POINT('',#600);
#211=VERTEX_POINT('',#602);
#212=VERTEX_POINT('',#604);
#213=VERTEX_POINT('',#606);
#214=VERTEX_POINT('',#608);
#215=VERTEX_POINT('',#612);
#216=VERTEX_POINT('',#614);
#217=VERTEX_POINT('',#621);
#218=VERTEX_POINT('',#626);
#219=VERTEX_POINT('',#630);
#220=VERTEX_POINT('',#634);
#221=VERTEX_POINT('',#641);
#222=VERTEX_POINT('',#642);
#223=VERTEX_POINT('',#644);
#224=VERTEX_POINT('',#646);
#225=VERTEX_POINT('',#648);
#226=VERTEX_POINT('',#650);
#227=EDGE_CURVE('',#195,#195,#193,.T.);
#228=EDGE_CURVE('',#195,#196,#95,.T.);
#229=EDGE_CURVE('',#196,#196,#194,.T.);
#230=EDGE_CURVE('',#197,#198,#96,.T.);
#231=EDGE_CURVE('',#198,#199,#97,.T.);
#232=EDGE_CURVE('',#199,#200,#98,.T.);
#233=EDGE_CURVE('',#200,#201,#99,.T.);
#234=EDGE_CURVE('',#201,#202,#100,.T.);
#235=EDGE_CURVE('',#202,#197,#101,.T.);
#236=EDGE_CURVE('',#201,#203,#102,.T.);
#237=EDGE_CURVE('',#203,#204,#103,.T.);
#238=EDGE_CURVE('',#202,#204,#104,.T.);
#239=EDGE_CURVE('',#200,#205,#105,.T.);
#240=EDGE_CURVE('',#205,#203,#106,.T.);
#241=EDGE_CURVE('',#199,#206,#107,.T.);
#242=EDGE_CURVE('',#206,#205,#108,.T.);
#243=EDGE_CURVE('',#207,#206,#109,.T.);
#244=EDGE_CURVE('',#208,#207,#110,.T.);
#245=EDGE_CURVE('',#204,#208,#111,.T.);
#246=EDGE_CURVE('',#209,#210,#112,.T.);
#247=EDGE_CURVE('',#211,#209,#113,.T.);
#248=EDGE_CURVE('',#212,#211,#114,.T.);
#249=EDGE_CURVE('',#213,#212,#115,.T.);
#250=EDGE_CURVE('',#214,#213,#116,.T.);
#251=EDGE_CURVE('',#210,#214,#117,.T.);
#252=EDGE_CURVE('',#212,#215,#118,.T.);
#253=EDGE_CURVE('',#215,#216,#119,.T.);
#254=EDGE_CURVE('',#213,#216,#120,.T.);
#255=EDGE_CURVE('',#197,#208,#121,.T.);
#256=EDGE_CURVE('',#198,#207,#122,.T.);
#257=EDGE_CURVE('',#216,#217,#123,.T.);
#258=EDGE_CURVE('',#214,#217,#124,.T.);
#259=EDGE_CURVE('',#211,#218,#125,.T.);
#260=EDGE_CURVE('',#218,#215,#126,.T.);
#261=EDGE_CURVE('',#217,#219,#127,.T.);
#262=EDGE_CURVE('',#210,#219,#128,.T.);
#263=EDGE_CURVE('',#209,#220,#129,.T.);
#264=EDGE_CURVE('',#220,#218,#130,.T.);
#265=EDGE_CURVE('',#219,#220,#131,.T.);
#266=EDGE_CURVE('',#221,#222,#132,.T.);
#267=EDGE_CURVE('',#222,#223,#133,.T.);
#268=EDGE_CURVE('',#223,#224,#134,.T.);
#269=EDGE_CURVE('',#224,#225,#135,.T.);
#270=EDGE_CURVE('',#225,#226,#136,.T.);
#271=EDGE_CURVE('',#226,#221,#137,.T.);
#272=EDGE_CURVE('',#226,#220,#138,.T.);
#273=EDGE_CURVE('',#218,#225,#139,.T.);
#274=EDGE_CURVE('',#215,#224,#140,.T.);
#275=EDGE_CURVE('',#221,#219,#141,.T.);
#276=EDGE_CURVE('',#216,#223,#142,.T.);
#277=EDGE_CURVE('',#222,#217,#143,.T.);
#278=ORIENTED_EDGE('',*,*,#227,.F.);
#279=ORIENTED_EDGE('',*,*,#228,.T.);
#280=ORIENTED_EDGE('',*,*,#229,.F.);
#281=ORIENTED_EDGE('',*,*,#228,.F.);
#282=ORIENTED_EDGE('',*,*,#230,.T.);
#283=ORIENTED_EDGE('',*,*,#231,.T.);
#284=ORIENTED_EDGE('',*,*,#232,.T.);
#285=ORIENTED_EDGE('',*,*,#233,.T.);
#286=ORIENTED_EDGE('',*,*,#234,.T.);
#287=ORIENTED_EDGE('',*,*,#235,.T.);
#288=ORIENTED_EDGE('',*,*,#236,.T.);
#289=ORIENTED_EDGE('',*,*,#237,.T.);
#290=ORIENTED_EDGE('',*,*,#238,.F.);
#291=ORIENTED_EDGE('',*,*,#234,.F.);
#292=ORIENTED_EDGE('',*,*,#239,.T.);
#293=ORIENTED_EDGE('',*,*,#240,.T.);
#294=ORIENTED_EDGE('',*,*,#236,.F.);
#295=ORIENTED_EDGE('',*,*,#233,.F.);
#296=ORIENTED_EDGE('',*,*,#241,.T.);
#297=ORIENTED_EDGE('',*,*,#242,.T.);
#298=ORIENTED_EDGE('',*,*,#239,.F.);
#299=ORIENTED_EDGE('',*,*,#232,.F.);
#300=ORIENTED_EDGE('',*,*,#227,.T.);
#301=ORIENTED_EDGE('',*,*,#240,.F.);
#302=ORIENTED_EDGE('',*,*,#242,.F.);
#303=ORIENTED_EDGE('',*,*,#243,.F.);
#304=ORIENTED_EDGE('',*,*,#244,.F.);
#305=ORIENTED_EDGE('',*,*,#245,.F.);
#306=ORIENTED_EDGE('',*,*,#237,.F.);
#307=ORIENTED_EDGE('',*,*,#229,.T.);
#308=ORIENTED_EDGE('',*,*,#246,.F.);
#309=ORIENTED_EDGE('',*,*,#247,.F.);
#310=ORIENTED_EDGE('',*,*,#248,.F.);
#311=ORIENTED_EDGE('',*,*,#249,.F.);
#312=ORIENTED_EDGE('',*,*,#250,.F.);
#313=ORIENTED_EDGE('',*,*,#251,.F.);
#314=ORIENTED_EDGE('',*,*,#249,.T.);
#315=ORIENTED_EDGE('',*,*,#252,.T.);
#316=ORIENTED_EDGE('',*,*,#253,.T.);
#317=ORIENTED_EDGE('',*,*,#254,.F.);
#318=ORIENTED_EDGE('',*,*,#255,.T.);
#319=ORIENTED_EDGE('',*,*,#244,.T.);
#320=ORIENTED_EDGE('',*,*,#256,.F.);
#321=ORIENTED_EDGE('',*,*,#230,.F.);
#322=ORIENTED_EDGE('',*,*,#250,.T.);
#323=ORIENTED_EDGE('',*,*,#254,.T.);
#324=ORIENTED_EDGE('',*,*,#257,.T.);
#325=ORIENTED_EDGE('',*,*,#258,.F.);
#326=ORIENTED_EDGE('',*,*,#256,.T.);
#327=ORIENTED_EDGE('',*,*,#243,.T.);
#328=ORIENTED_EDGE('',*,*,#241,.F.);
#329=ORIENTED_EDGE('',*,*,#231,.F.);
#330=ORIENTED_EDGE('',*,*,#248,.T.);
#331=ORIENTED_EDGE('',*,*,#259,.T.);
#332=ORIENTED_EDGE('',*,*,#260,.T.);
#333=ORIENTED_EDGE('',*,*,#252,.F.);
#334=ORIENTED_EDGE('',*,*,#251,.T.);
#335=ORIENTED_EDGE('',*,*,#258,.T.);
#336=ORIENTED_EDGE('',*,*,#261,.T.);
#337=ORIENTED_EDGE('',*,*,#262,.F.);
#338=ORIENTED_EDGE('',*,*,#247,.T.);
#339=ORIENTED_EDGE('',*,*,#263,.T.);
#340=ORIENTED_EDGE('',*,*,#264,.T.);
#341=ORIENTED_EDGE('',*,*,#259,.F.);
#342=ORIENTED_EDGE('',*,*,#246,.T.);
#343=ORIENTED_EDGE('',*,*,#262,.T.);
#344=ORIENTED_EDGE('',*,*,#265,.T.);
#345=ORIENTED_EDGE('',*,*,#263,.F.);
#346=ORIENTED_EDGE('',*,*,#238,.T.);
#347=ORIENTED_EDGE('',*,*,#245,.T.);
#348=ORIENTED_EDGE('',*,*,#255,.F.);
#349=ORIENTED_EDGE('',*,*,#235,.F.);
#350=ORIENTED_EDGE('',*,*,#266,.T.);
#351=ORIENTED_EDGE('',*,*,#267,.T.);
#352=ORIENTED_EDGE('',*,*,#268,.T.);
#353=ORIENTED_EDGE('',*,*,#269,.T.);
#354=ORIENTED_EDGE('',*,*,#270,.T.);
#355=ORIENTED_EDGE('',*,*,#271,.T.);
#356=ORIENTED_EDGE('',*,*,#272,.F.);
#357=ORIENTED_EDGE('',*,*,#270,.F.);
#358=ORIENTED_EDGE('',*,*,#273,.F.);
#359=ORIENTED_EDGE('',*,*,#264,.F.);
#360=ORIENTED_EDGE('',*,*,#273,.T.);
#361=ORIENTED_EDGE('',*,*,#269,.F.);
#362=ORIENTED_EDGE('',*,*,#274,.F.);
#363=ORIENTED_EDGE('',*,*,#260,.F.);
#364=ORIENTED_EDGE('',*,*,#272,.T.);
#365=ORIENTED_EDGE('',*,*,#265,.F.);
#366=ORIENTED_EDGE('',*,*,#275,.F.);
#367=ORIENTED_EDGE('',*,*,#271,.F.);
#368=ORIENTED_EDGE('',*,*,#274,.T.);
#369=ORIENTED_EDGE('',*,*,#268,.F.);
#370=ORIENTED_EDGE('',*,*,#276,.F.);
#371=ORIENTED_EDGE('',*,*,#253,.F.);
#372=ORIENTED_EDGE('',*,*,#275,.T.);
#373=ORIENTED_EDGE('',*,*,#261,.F.);
#374=ORIENTED_EDGE('',*,*,#277,.F.);
#375=ORIENTED_EDGE('',*,*,#266,.F.);
#376=ORIENTED_EDGE('',*,*,#276,.T.);
#377=ORIENTED_EDGE('',*,*,#267,.F.);
#378=ORIENTED_EDGE('',*,*,#277,.T.);
#379=ORIENTED_EDGE('',*,*,#257,.F.);
#380=CYLINDRICAL_SURFACE('',#420,0.375);
#381=ADVANCED_FACE('',(#47),#380,.T.);
#382=ADVANCED_FACE('',(#48),#25,.T.);
#383=ADVANCED_FACE('',(#49),#26,.F.);
#384=ADVANCED_FACE('',(#50),#27,.F.);
#385=ADVANCED_FACE('',(#51),#28,.F.);
#386=ADVANCED_FACE('',(#52,#23),#29,.T.);
#387=ADVANCED_FACE('',(#53,#24),#30,.F.);
#388=ADVANCED_FACE('',(#54),#31,.F.);
#389=ADVANCED_FACE('',(#55),#32,.F.);
#390=ADVANCED_FACE('',(#56),#33,.F.);
#391=ADVANCED_FACE('',(#57),#34,.F.);
#392=ADVANCED_FACE('',(#58),#35,.F.);
#393=ADVANCED_FACE('',(#59),#36,.F.);
#394=ADVANCED_FACE('',(#60),#37,.F.);
#395=ADVANCED_FACE('',(#61),#38,.F.);
#396=ADVANCED_FACE('',(#62),#39,.F.);
#397=ADVANCED_FACE('',(#63),#40,.F.);
#398=ADVANCED_FACE('',(#64),#41,.F.);
#399=ADVANCED_FACE('',(#65),#42,.F.);
#400=ADVANCED_FACE('',(#66),#43,.F.);
#401=ADVANCED_FACE('',(#67),#44,.F.);
#402=ADVANCED_FACE('',(#68),#45,.F.);
#403=ADVANCED_FACE('',(#69),#46,.F.);
#404=CLOSED_SHELL('',(#381,#382,#383,#384,#385,#386,#387,#388,#389,#390,
#391,#392,#393,#394,#395,#396,#397,#398,#399,#400,#401,#402,#403));
#405=DERIVED_UNIT_ELEMENT(#407,1.);
#406=DERIVED_UNIT_ELEMENT(#678,-3.);
#407=(
MASS_UNIT()
NAMED_UNIT(*)
SI_UNIT(.KILO.,.GRAM.)
);
#408=DERIVED_UNIT((#405,#406));
#409=MEASURE_REPRESENTATION_ITEM('density measure',
POSITIVE_RATIO_MEASURE(7850.),#408);
#410=PROPERTY_DEFINITION_REPRESENTATION(#415,#412);
#411=PROPERTY_DEFINITION_REPRESENTATION(#416,#413);
#412=REPRESENTATION('material name',(#414),#673);
#413=REPRESENTATION('density',(#409),#673);
#414=DESCRIPTIVE_REPRESENTATION_ITEM('Steel','Steel');
#415=PROPERTY_DEFINITION('material property','material name',#696);
#416=PROPERTY_DEFINITION('material property','density of part',#696);
#417=AXIS2_PLACEMENT_3D('',#556,#447,#448);
#418=AXIS2_PLACEMENT_3D('',#557,#449,#450);
#419=AXIS2_PLACEMENT_3D('',#558,#451,#452);
#420=AXIS2_PLACEMENT_3D('',#559,#453,#454);
#421=AXIS2_PLACEMENT_3D('',#561,#455,#456);
#422=AXIS2_PLACEMENT_3D('',#564,#458,#459);
#423=AXIS2_PLACEMENT_3D('',#565,#460,#461);
#424=AXIS2_PLACEMENT_3D('',#578,#468,#469);
#425=AXIS2_PLACEMENT_3D('',#584,#473,#474);
#426=AXIS2_PLACEMENT_3D('',#588,#477,#478);
#427=AXIS2_PLACEMENT_3D('',#592,#481,#482);
#428=AXIS2_PLACEMENT_3D('',#598,#486,#487);
#429=AXIS2_PLACEMENT_3D('',#611,#494,#495);
#430=AXIS2_PLACEMENT_3D('',#617,#499,#500);
#431=AXIS2_PLACEMENT_3D('',#620,#503,#504);
#432=AXIS2_PLACEMENT_3D('',#624,#507,#508);
#433=AXIS2_PLACEMENT_3D('',#625,#509,#510);
#434=AXIS2_PLACEMENT_3D('',#629,#513,#514);
#435=AXIS2_PLACEMENT_3D('',#633,#517,#518);
#436=AXIS2_PLACEMENT_3D('',#637,#521,#522);
#437=AXIS2_PLACEMENT_3D('',#639,#524,#525);
#438=AXIS2_PLACEMENT_3D('',#640,#526,#527);
#439=AXIS2_PLACEMENT_3D('',#653,#534,#535);
#440=AXIS2_PLACEMENT_3D('',#656,#538,#539);
#441=AXIS2_PLACEMENT_3D('',#658,#541,#542);
#442=AXIS2_PLACEMENT_3D('',#660,#544,#545);
#443=AXIS2_PLACEMENT_3D('',#662,#547,#548);
#444=AXIS2_PLACEMENT_3D('',#664,#550,#551);
#445=AXIS2_PLACEMENT_3D('',#665,#552,#553);
#446=AXIS2_PLACEMENT_3D('',#666,#554,#555);
#447=DIRECTION('axis',(0.,0.,1.));
#448=DIRECTION('refdir',(1.,0.,0.));
#449=DIRECTION('axis',(0.,0.,1.));
#450=DIRECTION('refdir',(1.,0.,0.));
#451=DIRECTION('axis',(0.,0.,1.));
#452=DIRECTION('refdir',(1.,0.,0.));
#453=DIRECTION('center_axis',(0.,0.,1.));
#454=DIRECTION('ref_axis',(0.987688340595138,0.156434465040231,0.));
#455=DIRECTION('center_axis',(5.48277168441268E-17,8.68385724662958E-18,
1.));
#456=DIRECTION('ref_axis',(0.987688340595138,0.156434465040231,-5.55111512312579E-17));
#457=DIRECTION('',(0.,0.,-1.));
#458=DIRECTION('center_axis',(-5.48277168441268E-17,-8.68385724662958E-18,
-1.));
#459=DIRECTION('ref_axis',(0.987688340595138,0.156434465040231,-5.55111512312579E-17));
#460=DIRECTION('center_axis',(5.48277168441268E-17,8.68385724662909E-18,
1.));
#461=DIRECTION('ref_axis',(1.,0.,-5.48277168441268E-17));
#462=DIRECTION('',(0.5,0.866025403784439,-3.49342994004818E-17));
#463=DIRECTION('',(-0.5,0.866025403784438,1.9893417443645E-17));
#464=DIRECTION('',(-1.,0.,5.48277168441268E-17));
#465=DIRECTION('',(-0.5,-0.866025403784438,3.49342994004818E-17));
#466=DIRECTION('',(0.5,-0.866025403784438,-1.9893417443645E-17));
#467=DIRECTION('',(1.,1.1829248808954E-16,-5.48277168441268E-17));
#468=DIRECTION('center_axis',(0.866025403784439,0.5,-5.18241242418284E-17));
#469=DIRECTION('ref_axis',(-0.5,0.866025403784439,1.98934174436451E-17));
#470=DIRECTION('',(-5.48277168441268E-17,-8.6838572466291E-18,-1.));
#471=DIRECTION('',(0.5,-0.866025403784438,-1.9893417443645E-17));
#472=DIRECTION('',(-5.48277168441268E-17,-8.6838572466291E-18,-1.));
#473=DIRECTION('center_axis',(0.866025403784439,-0.5,-4.31402669951993E-17));
#474=DIRECTION('ref_axis',(0.5,0.866025403784439,-3.49342994004818E-17));
#475=DIRECTION('',(-5.48277168441268E-17,-8.6838572466291E-18,-1.));
#476=DIRECTION('',(-0.5,-0.866025403784439,3.49342994004818E-17));
#477=DIRECTION('center_axis',(4.76116066232999E-34,-1.,8.68385724662909E-18));
#478=DIRECTION('ref_axis',(-5.48277168441268E-17,-8.6838572466291E-18,-1.));
#479=DIRECTION('',(-5.48277168441268E-17,-8.6838572466291E-18,-1.));
#480=DIRECTION('',(-1.,-4.63406297010431E-50,5.48277168441268E-17));
#481=DIRECTION('center_axis',(5.48277168441268E-17,8.68385724662909E-18,
1.));
#482=DIRECTION('ref_axis',(0.987688340595138,0.156434465040231,-5.55111512312579E-17));
#483=DIRECTION('',(-0.5,0.866025403784438,1.9893417443645E-17));
#484=DIRECTION('',(0.5,0.866025403784439,-3.49342994004818E-17));
#485=DIRECTION('',(1.,1.1829248808954E-16,-5.48277168441268E-17));
#486=DIRECTION('center_axis',(5.48277168441268E-17,8.68385724662909E-18,
1.));
#487=DIRECTION('ref_axis',(0.987688340595138,0.156434465040231,-5.55111512312579E-17));
#488=DIRECTION('',(0.5,0.866025403784439,-3.49342994004818E-17));
#489=DIRECTION('',(-0.5,0.866025403784438,1.9893417443645E-17));
#490=DIRECTION('',(-1.,-1.1829248808954E-16,5.48277168441268E-17));
#491=DIRECTION('',(-0.5,-0.866025403784439,3.49342994004818E-17));
#492=DIRECTION('',(0.5,-0.866025403784438,-1.9893417443645E-17));
#493=DIRECTION('',(1.,4.63406297010431E-50,-5.48277168441268E-17));
#494=DIRECTION('center_axis',(-0.866025403784439,0.5,4.31402669951993E-17));
#495=DIRECTION('ref_axis',(-0.5,-0.866025403784439,3.49342994004818E-17));
#496=DIRECTION('',(-5.48277168441268E-17,-8.6838572466291E-18,-1.));
#497=DIRECTION('',(0.5,0.866025403784439,-3.49342994004818E-17));
#498=DIRECTION('',(-5.48277168441268E-17,-8.6838572466291E-18,-1.));
#499=DIRECTION('center_axis',(-0.866025403784439,0.5,4.31402669951993E-17));
#500=DIRECTION('ref_axis',(-0.5,-0.866025403784439,3.49342994004818E-17));
#501=DIRECTION('',(-5.48277168441268E-17,-8.6838572466291E-18,-1.));
#502=DIRECTION('',(-5.48277168441268E-17,-8.6838572466291E-18,-1.));
#503=DIRECTION('center_axis',(-0.866025403784438,-0.5,5.18241242418283E-17));
#504=DIRECTION('ref_axis',(0.5,-0.866025403784438,-1.98934174436451E-17));
#505=DIRECTION('',(-0.5,0.866025403784438,1.98934174436451E-17));
#506=DIRECTION('',(-5.48277168441268E-17,-8.6838572466291E-18,-1.));
#507=DIRECTION('center_axis',(-0.866025403784438,-0.5,5.18241242418283E-17));
#508=DIRECTION('ref_axis',(0.5,-0.866025403784438,-1.98934174436451E-17));
#509=DIRECTION('center_axis',(-1.1829248808954E-16,1.,-8.68385724662909E-18));
#510=DIRECTION('ref_axis',(-1.,-1.1829248808954E-16,5.48277168441268E-17));
#511=DIRECTION('',(-5.48277168441268E-17,-8.6838572466291E-18,-1.));
#512=DIRECTION('',(1.,1.1829248808954E-16,-5.48277168441268E-17));
#513=DIRECTION('center_axis',(4.76116066232999E-34,-1.,8.68385724662909E-18));
#514=DIRECTION('ref_axis',(-5.48277168441268E-17,-8.6838572466291E-18,-1.));
#515=DIRECTION('',(-1.,0.,5.48277168441268E-17));
#516=DIRECTION('',(-5.48277168441268E-17,-8.6838572466291E-18,-1.));
#517=DIRECTION('center_axis',(0.866025403784439,0.5,-5.18241242418284E-17));
#518=DIRECTION('ref_axis',(-0.5,0.866025403784439,1.98934174436451E-17));
#519=DIRECTION('',(-5.48277168441268E-17,-8.6838572466291E-18,-1.));
#520=DIRECTION('',(0.5,-0.866025403784438,-1.9893417443645E-17));
#521=DIRECTION('center_axis',(0.866025403784439,-0.5,-4.31402669951993E-17));
#522=DIRECTION('ref_axis',(0.5,0.866025403784439,-3.49342994004818E-17));
#523=DIRECTION('',(-0.5,-0.866025403784438,3.49342994004818E-17));
#524=DIRECTION('center_axis',(-1.1829248808954E-16,1.,-8.68385724662909E-18));
#525=DIRECTION('ref_axis',(-1.,-1.1829248808954E-16,5.48277168441268E-17));
#526=DIRECTION('center_axis',(5.48277168441268E-17,8.68385724662909E-18,
1.));
#527=DIRECTION('ref_axis',(1.,0.,-5.48277168441268E-17));
#528=DIRECTION('',(1.,0.,-5.48277168441268E-17));
#529=DIRECTION('',(0.5,-0.866025403784438,-1.98934174436451E-17));
#530=DIRECTION('',(-0.5,-0.866025403784439,3.49342994004818E-17));
#531=DIRECTION('',(-1.,-1.1829248808954E-16,5.48277168441268E-17));
#532=DIRECTION('',(-0.5,0.866025403784438,1.9893417443645E-17));
#533=DIRECTION('',(0.5,0.866025403784438,-3.49342994004818E-17));
#534=DIRECTION('center_axis',(0.612372435695778,0.353553390593265,0.707106781186566));
#535=DIRECTION('ref_axis',(0.755928946018472,-6.11960702536675E-17,-0.654653670707957));
#536=DIRECTION('',(-0.755928946018472,1.15096256977677E-15,0.654653670707957));
#537=DIRECTION('',(0.377964473009234,0.654653670707994,-0.654653670707957));
#538=DIRECTION('center_axis',(-4.48763701140814E-17,0.707106781186528,0.707106781186567));
#539=DIRECTION('ref_axis',(3.87690503774569E-17,-0.707106781186567,0.707106781186528));
#540=DIRECTION('',(-0.377964473009235,0.654653670707993,-0.654653670707956));
#541=DIRECTION('center_axis',(0.612372435695778,-0.353553390593264,0.707106781186567));
#542=DIRECTION('ref_axis',(0.755928946018472,-3.34404946380385E-17,-0.654653670707957));
#543=DIRECTION('',(-0.377964473009238,0.654653670707991,0.654653670707957));
#544=DIRECTION('center_axis',(-0.612372435695778,0.353553390593264,0.707106781186567));
#545=DIRECTION('ref_axis',(0.755928946018472,5.68491902240963E-18,0.654653670707957));
#546=DIRECTION('',(-0.755928946018472,1.56430849538041E-15,-0.654653670707957));
#547=DIRECTION('center_axis',(3.8769050377459E-17,-0.707106781186529,0.707106781186566));
#548=DIRECTION('ref_axis',(-3.8769050377457E-17,-0.707106781186566,-0.707106781186529));
#549=DIRECTION('',(0.377964473009236,0.654653670707991,0.654653670707958));
#550=DIRECTION('center_axis',(-0.612372435695778,-0.353553390593265,0.707106781186566));
#551=DIRECTION('ref_axis',(0.755928946018471,5.68491902240963E-18,0.654653670707958));
#552=DIRECTION('',(0.,0.,1.));
#553=DIRECTION('',(0.987688340595138,-0.156434465040231,0.));
#554=DIRECTION('',(0.,1.,-5.41233724504764E-16));
#555=DIRECTION('',(1.,0.,0.));
#556=CARTESIAN_POINT('',(0.,0.,0.));
#557=CARTESIAN_POINT('',(0.,0.,0.));
#558=CARTESIAN_POINT('',(0.,0.,0.));
#559=CARTESIAN_POINT('Origin',(-0.628148913959364,-5.36590796580925,4.6221912940105));
#560=CARTESIAN_POINT('',(-0.998532041682541,-5.42457089019934,4.6721912940105));
#561=CARTESIAN_POINT('Origin',(-0.628148913959364,-5.36590796580925,4.6721912940105));
#562=CARTESIAN_POINT('',(-0.998532041682541,-5.42457089019934,4.6221912940105));
#563=CARTESIAN_POINT('',(-0.998532041682541,-5.42457089019933,4.6221912940105));
#564=CARTESIAN_POINT('Origin',(-0.628148913959364,-5.36590796580925,4.6221912940105));
#565=CARTESIAN_POINT('Origin',(-0.899009332229342,-5.38952875657009,6.02464011290814));
#566=CARTESIAN_POINT('',(-0.483811346661956,-5.61590796580925,6.02464011290814));
#567=CARTESIAN_POINT('',(-0.33947377936455,-5.36590796580925,6.02464011290814));
#568=CARTESIAN_POINT('',(-0.486698558335445,-5.62090876311993,6.02464011290814));
#569=CARTESIAN_POINT('',(-0.483811346661957,-5.11590796580925,6.02464011290814));
#570=CARTESIAN_POINT('',(-0.404301672258556,-5.25362276156919,6.02464011290814));
#571=CARTESIAN_POINT('',(-0.772486481256769,-5.11590796580925,6.02464011290814));
#572=CARTESIAN_POINT('',(-0.691410339445649,-5.11590796580925,6.02464011290814));
#573=CARTESIAN_POINT('',(-0.916824048554176,-5.36590796580925,6.02464011290814));
#574=CARTESIAN_POINT('',(-0.847542476578961,-5.24590876311993,6.02464011290814));
#575=CARTESIAN_POINT('',(-0.772486481256769,-5.61590796580925,6.02464011290814));
#576=CARTESIAN_POINT('',(-0.909483157799479,-5.37862276156919,6.02464011290814));
#577=CARTESIAN_POINT('',(-0.835747906743055,-5.61590796580925,6.02464011290814));
#578=CARTESIAN_POINT('Origin',(-0.916824048554175,-5.36590796580925,9.03164011290814));
#579=CARTESIAN_POINT('',(-0.916824048554176,-5.36590796580925,4.6721912940105));
#580=CARTESIAN_POINT('',(-0.916824048554175,-5.36590796580925,9.03164011290814));
#581=CARTESIAN_POINT('',(-0.772486481256769,-5.61590796580925,4.6721912940105));
#582=CARTESIAN_POINT('',(-0.880739656729824,-5.42840796580925,4.6721912940105));
#583=CARTESIAN_POINT('',(-0.772486481256769,-5.61590796580925,9.03164011290814));
#584=CARTESIAN_POINT('Origin',(-0.772486481256769,-5.11590796580925,9.03164011290814));
#585=CARTESIAN_POINT('',(-0.772486481256769,-5.11590796580925,4.6721912940105));
#586=CARTESIAN_POINT('',(-0.772486481256769,-5.11590796580925,9.03164011290814));
#587=CARTESIAN_POINT('',(-0.808570873081121,-5.17840796580925,4.6721912940105));
#588=CARTESIAN_POINT('Origin',(-0.483811346661956,-5.11590796580925,9.03164011290814));
#589=CARTESIAN_POINT('',(-0.483811346661957,-5.11590796580925,4.6721912940105));
#590=CARTESIAN_POINT('',(-0.483811346661956,-5.11590796580925,9.03164011290814));
#591=CARTESIAN_POINT('',(-0.55598013031066,-5.11590796580925,4.6721912940105));
#592=CARTESIAN_POINT('Origin',(-0.628148913959363,-5.36590796580925,4.6721912940105));
#593=CARTESIAN_POINT('',(-0.33947377936455,-5.36590796580925,4.6721912940105));
#594=CARTESIAN_POINT('',(-0.375558171188902,-5.30340796580925,4.6721912940105));
#595=CARTESIAN_POINT('',(-0.483811346661956,-5.61590796580925,4.6721912940105));
#596=CARTESIAN_POINT('',(-0.447726954837605,-5.55340796580925,4.6721912940105));
#597=CARTESIAN_POINT('',(-0.700317697608066,-5.61590796580925,4.6721912940105));
#598=CARTESIAN_POINT('Origin',(-0.628148913959363,-5.36590796580925,4.6221912940105));
#599=CARTESIAN_POINT('',(-0.916824048554176,-5.36590796580925,4.6221912940105));
#600=CARTESIAN_POINT('',(-0.772486481256769,-5.11590796580925,4.6221912940105));
#601=CARTESIAN_POINT('',(-0.808570873081121,-5.17840796580925,4.6221912940105));
#602=CARTESIAN_POINT('',(-0.772486481256769,-5.61590796580925,4.6221912940105));
#603=CARTESIAN_POINT('',(-0.880739656729824,-5.42840796580925,4.6221912940105));
#604=CARTESIAN_POINT('',(-0.483811346661957,-5.61590796580925,4.6221912940105));
#605=CARTESIAN_POINT('',(-0.700317697608066,-5.61590796580925,4.6221912940105));
#606=CARTESIAN_POINT('',(-0.33947377936455,-5.36590796580925,4.6221912940105));
#607=CARTESIAN_POINT('',(-0.447726954837605,-5.55340796580925,4.6221912940105));
#608=CARTESIAN_POINT('',(-0.483811346661957,-5.11590796580925,4.6221912940105));
#609=CARTESIAN_POINT('',(-0.375558171188902,-5.30340796580925,4.6221912940105));
#610=CARTESIAN_POINT('',(-0.55598013031066,-5.11590796580925,4.6221912940105));
#611=CARTESIAN_POINT('Origin',(-0.483811346661956,-5.61590796580925,9.03164011290814));
#612=CARTESIAN_POINT('',(-0.483811346661957,-5.61590796580925,4.04164011290814));
#613=CARTESIAN_POINT('',(-0.483811346661956,-5.61590796580925,9.03164011290814));
#614=CARTESIAN_POINT('',(-0.33947377936455,-5.36590796580925,4.04164011290814));
#615=CARTESIAN_POINT('',(-0.483811346661957,-5.61590796580925,4.04164011290814));
#616=CARTESIAN_POINT('',(-0.33947377936455,-5.36590796580925,9.03164011290814));
#617=CARTESIAN_POINT('Origin',(-0.483811346661956,-5.61590796580925,9.03164011290814));
#618=CARTESIAN_POINT('',(-0.483811346661956,-5.61590796580925,9.03164011290814));
#619=CARTESIAN_POINT('',(-0.33947377936455,-5.36590796580925,9.03164011290814));
#620=CARTESIAN_POINT('Origin',(-0.33947377936455,-5.36590796580925,9.03164011290814));
#621=CARTESIAN_POINT('',(-0.483811346661957,-5.11590796580925,4.04164011290814));
#622=CARTESIAN_POINT('',(-0.33947377936455,-5.36590796580925,4.04164011290814));
#623=CARTESIAN_POINT('',(-0.483811346661956,-5.11590796580925,9.03164011290814));
#624=CARTESIAN_POINT('Origin',(-0.33947377936455,-5.36590796580925,9.03164011290814));
#625=CARTESIAN_POINT('Origin',(-0.772486481256769,-5.61590796580925,9.03164011290814));
#626=CARTESIAN_POINT('',(-0.772486481256769,-5.61590796580925,4.04164011290814));
#627=CARTESIAN_POINT('',(-0.772486481256769,-5.61590796580925,9.03164011290814));
#628=CARTESIAN_POINT('',(-0.772486481256769,-5.61590796580925,4.04164011290814));
#629=CARTESIAN_POINT('Origin',(-0.483811346661956,-5.11590796580925,9.03164011290814));
#630=CARTESIAN_POINT('',(-0.772486481256769,-5.11590796580925,4.04164011290814));
#631=CARTESIAN_POINT('',(-0.483811346661957,-5.11590796580925,4.04164011290814));
#632=CARTESIAN_POINT('',(-0.772486481256769,-5.11590796580925,9.03164011290814));
#633=CARTESIAN_POINT('Origin',(-0.916824048554175,-5.36590796580925,9.03164011290814));
#634=CARTESIAN_POINT('',(-0.916824048554176,-5.36590796580925,4.04164011290814));
#635=CARTESIAN_POINT('',(-0.916824048554175,-5.36590796580925,9.03164011290814));
#636=CARTESIAN_POINT('',(-0.916824048554176,-5.36590796580925,4.04164011290814));
#637=CARTESIAN_POINT('Origin',(-0.772486481256769,-5.11590796580925,9.03164011290814));
#638=CARTESIAN_POINT('',(-0.772486481256769,-5.11590796580925,4.04164011290814));
#639=CARTESIAN_POINT('Origin',(-0.772486481256769,-5.61590796580925,9.03164011290814));
#640=CARTESIAN_POINT('Origin',(-0.33947377936455,-5.36590796580925,4.03164011290814));
#641=CARTESIAN_POINT('',(-0.766712978564873,-5.12590796580925,4.03164011290814));
#642=CARTESIAN_POINT('',(-0.489584849353853,-5.12590796580925,4.03164011290814));
#643=CARTESIAN_POINT('',(-0.33947377936455,-5.12590796580925,4.03164011290814));
#644=CARTESIAN_POINT('',(-0.351020784748342,-5.36590796580925,4.03164011290814));
#645=CARTESIAN_POINT('',(-0.348134033402394,-5.37090796580924,4.03164011290814));
#646=CARTESIAN_POINT('',(-0.489584849353852,-5.60590796580925,4.03164011290814));
#647=CARTESIAN_POINT('',(-0.348134033402394,-5.36090796580925,4.03164011290814));
#648=CARTESIAN_POINT('',(-0.766712978564873,-5.60590796580925,4.03164011290814));
#649=CARTESIAN_POINT('',(-0.33947377936455,-5.60590796580925,4.03164011290814));
#650=CARTESIAN_POINT('',(-0.905277043170384,-5.36590796580925,4.03164011290814));
#651=CARTESIAN_POINT('',(-0.763826227218925,-5.61090796580925,4.03164011290814));
#652=CARTESIAN_POINT('',(-0.763826227218925,-5.12090796580925,4.03164011290814));
#653=CARTESIAN_POINT('Origin',(-0.916824048554176,-5.36590796580925,4.04164011290814));
#654=CARTESIAN_POINT('',(-0.916824048554176,-5.36590796580925,4.04164011290814));
#655=CARTESIAN_POINT('',(-0.772486481256769,-5.61590796580925,4.04164011290814));
#656=CARTESIAN_POINT('Origin',(-0.772486481256769,-5.61590796580925,4.04164011290814));
#657=CARTESIAN_POINT('',(-0.483811346661957,-5.61590796580925,4.04164011290814));
#658=CARTESIAN_POINT('Origin',(-0.772486481256769,-5.11590796580925,4.04164011290814));
#659=CARTESIAN_POINT('',(-0.772486481256769,-5.11590796580925,4.04164011290814));
#660=CARTESIAN_POINT('Origin',(-0.483811346661957,-5.61590796580925,4.04164011290814));
#661=CARTESIAN_POINT('',(-0.421952389248786,-5.36590796580925,3.97021154147956));
#662=CARTESIAN_POINT('Origin',(-0.483811346661957,-5.11590796580925,4.04164011290814));
#663=CARTESIAN_POINT('',(-0.483811346661957,-5.11590796580925,4.04164011290814));
#664=CARTESIAN_POINT('Origin',(-0.33947377936455,-5.36590796580925,4.04164011290814));
#665=CARTESIAN_POINT('',(4.68189777121685E-19,4.2698171426317E-17,0.));
#666=CARTESIAN_POINT('',(0.,5.38444881889764,-3.38444881889764));
#667=UNCERTAINTY_MEASURE_WITH_UNIT(LENGTH_MEASURE(0.000393700787401575),
#676,'DISTANCE_ACCURACY_VALUE',
'Maximum model space distance between geometric entities at asserted c
onnectivities');
#668=UNCERTAINTY_MEASURE_WITH_UNIT(LENGTH_MEASURE(0.000393700787401575),
#676,'DISTANCE_ACCURACY_VALUE',
'Maximum model space distance between geometric entities at asserted c
onnectivities');
#669=UNCERTAINTY_MEASURE_WITH_UNIT(LENGTH_MEASURE(0.000393700787401575),
#676,'DISTANCE_ACCURACY_VALUE',
'Maximum model space distance between geometric entities at asserted c
onnectivities');
#670=UNCERTAINTY_MEASURE_WITH_UNIT(LENGTH_MEASURE(0.000393700787401575),
#676,'DISTANCE_ACCURACY_VALUE',
'Maximum model space distance between geometric entities at asserted c
onnectivities');
#671=(
GEOMETRIC_REPRESENTATION_CONTEXT(3)
GLOBAL_UNCERTAINTY_ASSIGNED_CONTEXT((#667))
GLOBAL_UNIT_ASSIGNED_CONTEXT((#676,#680,#681))
REPRESENTATION_CONTEXT('','3D')
);
#672=(
GEOMETRIC_REPRESENTATION_CONTEXT(3)
GLOBAL_UNCERTAINTY_ASSIGNED_CONTEXT((#668))
GLOBAL_UNIT_ASSIGNED_CONTEXT((#676,#680,#681))
REPRESENTATION_CONTEXT('','3D')
);
#673=(
GEOMETRIC_REPRESENTATION_CONTEXT(3)
GLOBAL_UNCERTAINTY_ASSIGNED_CONTEXT((#669))
GLOBAL_UNIT_ASSIGNED_CONTEXT((#676,#680,#681))
REPRESENTATION_CONTEXT('','3D')
);
#674=(
GEOMETRIC_REPRESENTATION_CONTEXT(3)
GLOBAL_UNCERTAINTY_ASSIGNED_CONTEXT((#670))
GLOBAL_UNIT_ASSIGNED_CONTEXT((#676,#680,#681))
REPRESENTATION_CONTEXT('','3D')
);
#675=DIMENSIONAL_EXPONENTS(1.,0.,0.,0.,0.,0.,0.);
#676=(
CONVERSION_BASED_UNIT('inch',#679)
LENGTH_UNIT()
NAMED_UNIT(#675)
);
#677=(
LENGTH_UNIT()
NAMED_UNIT(*)
SI_UNIT(.MILLI.,.METRE.)
);
#678=(
LENGTH_UNIT()
NAMED_UNIT(*)
SI_UNIT($,.METRE.)
);
#679=LENGTH_MEASURE_WITH_UNIT(LENGTH_MEASURE(25.4),#677);
#680=(
NAMED_UNIT(*)
PLANE_ANGLE_UNIT()
SI_UNIT($,.RADIAN.)
);
#681=(
NAMED_UNIT(*)
SI_UNIT($,.STERADIAN.)
SOLID_ANGLE_UNIT()
);
#682=SHAPE_DEFINITION_REPRESENTATION(#685,#690);
#683=SHAPE_DEFINITION_REPRESENTATION(#686,#691);
#684=SHAPE_DEFINITION_REPRESENTATION(#687,#692);
#685=PRODUCT_DEFINITION_SHAPE('',$,#694);
#686=PRODUCT_DEFINITION_SHAPE('',$,#695);
#687=PRODUCT_DEFINITION_SHAPE('',$,#696);
#688=PRODUCT_DEFINITION_SHAPE($,$,#17);
#689=PRODUCT_DEFINITION_SHAPE($,$,#18);
#690=SHAPE_REPRESENTATION('',(#417,#446),#671);
#691=SHAPE_REPRESENTATION('',(#418,#445),#672);
#692=SHAPE_REPRESENTATION('',(#419),#673);
#693=PRODUCT_DEFINITION_CONTEXT('part definition',#704,'design');
#694=PRODUCT_DEFINITION('9384 odom final','9384 odom final v1',#697,#693);
#695=PRODUCT_DEFINITION('9384 odom v28','9384 odom v28',#698,#693);
#696=PRODUCT_DEFINITION('1/2 hex shaft w/ holder',
'1/2 hex shaft w/ holder',#699,#693);
#697=PRODUCT_DEFINITION_FORMATION('',$,#706);
#698=PRODUCT_DEFINITION_FORMATION('',$,#707);
#699=PRODUCT_DEFINITION_FORMATION('',$,#708);
#700=PRODUCT_RELATED_PRODUCT_CATEGORY('9384 odom final v1',
'9384 odom final v1',(#706));
#701=PRODUCT_RELATED_PRODUCT_CATEGORY('9384 odom v28','9384 odom v28',(#707));
#702=PRODUCT_RELATED_PRODUCT_CATEGORY('1/2 hex shaft w/ holder',
'1/2 hex shaft w/ holder',(#708));
#703=APPLICATION_PROTOCOL_DEFINITION('international standard',
'automotive_design',2009,#704);
#704=APPLICATION_CONTEXT(
'Core Data for Automotive Mechanical Design Process');
#705=PRODUCT_CONTEXT('part definition',#704,'mechanical');
#706=PRODUCT('9384 odom final','9384 odom final v1',$,(#705));
#707=PRODUCT('9384 odom v28','9384 odom v28',$,(#705));
#708=PRODUCT('1/2 hex shaft w/ holder','1/2 hex shaft w/ holder',$,(#705));
#709=PRESENTATION_STYLE_ASSIGNMENT((#711));
#710=PRESENTATION_STYLE_ASSIGNMENT((#712));
#711=SURFACE_STYLE_USAGE(.BOTH.,#713);
#712=SURFACE_STYLE_USAGE(.BOTH.,#714);
#713=SURFACE_SIDE_STYLE('',(#715));
#714=SURFACE_SIDE_STYLE('',(#716));
#715=SURFACE_STYLE_FILL_AREA(#717);
#716=SURFACE_STYLE_FILL_AREA(#718);
#717=FILL_AREA_STYLE('Steel - Satin',(#719));
#718=FILL_AREA_STYLE('Opaque(255,242,232)',(#720));
#719=FILL_AREA_STYLE_COLOUR('Steel - Satin',#721);
#720=FILL_AREA_STYLE_COLOUR('Opaque(255,242,232)',#722);
#721=COLOUR_RGB('Steel - Satin',0.627450980392157,0.627450980392157,0.627450980392157);
#722=COLOUR_RGB('Opaque(255,242,232)',1.,0.949019607843137,0.909803921568627);
ENDSEC;
END-ISO-10303-21;
